<svg width="301" height="73" viewBox="0 0 301 73" fill="none" xmlns="http://www.w3.org/2000/svg">
<g clip-path="url(#clip0_176_8)">
<mask id="mask0_176_8" style="mask-type:luminance" maskUnits="userSpaceOnUse" x="0" y="0" width="301" height="73">
<path d="M300.789 0.961914H0.789062V72.749H300.789V0.961914Z" fill="white"/>
</mask>
<g mask="url(#mask0_176_8)">
<path d="M63.8488 13.0264H73.4435V47.9646H62.8412V25.0418L38.9108 43.5205H35.3279L11.3933 25.0418V47.9646H0.791016V13.0264H10.3816L37.1424 33.3238L63.8488 13.0264Z" fill="#63003D"/>
<path d="M143.47 15.0206C146.535 16.35 148.863 18.3192 150.464 20.9279C152.061 23.5367 152.864 26.7266 152.864 30.4934V30.5436C152.864 34.3146 152.066 37.4961 150.464 40.0882C148.867 42.6802 146.535 44.641 143.47 45.9704C140.406 47.2999 136.706 47.9646 132.362 47.9646H101.061C96.7171 47.9646 93.0171 47.2999 89.9527 45.9704C86.8882 44.641 84.5595 42.6802 82.9583 40.0882C81.3571 37.4961 80.5586 34.3146 80.5586 30.5436V30.4934C80.5586 26.7224 81.3571 23.5325 82.9583 20.9279C84.5554 18.3192 86.8882 16.35 89.9527 15.0206C93.0171 13.6911 96.7171 13.0264 101.061 13.0264H132.362C136.706 13.0264 140.406 13.6911 143.47 15.0206ZM138.294 37.9184C139.824 37.2787 140.953 36.3464 141.677 35.1173C142.4 33.8882 142.764 32.3664 142.764 30.5478V30.4976C142.764 28.6455 142.4 27.107 141.677 25.8779C140.953 24.6488 139.824 23.7165 138.294 23.0768C136.764 22.4372 134.787 22.1194 132.362 22.1194H101.061C98.636 22.1194 96.6585 22.4413 95.1284 23.0768C93.5941 23.7165 92.4695 24.6488 91.7462 25.8779C91.0229 27.107 90.6592 28.6455 90.6592 30.4976V30.5478C90.6592 32.3664 91.0187 33.8882 91.7462 35.1173C92.4695 36.3464 93.5983 37.2787 95.1284 37.9184C96.6585 38.558 98.636 38.8757 101.061 38.8757H132.362C134.787 38.8757 136.764 38.558 138.294 37.9184Z" fill="#63003D"/>
<path d="M159.98 13.0264H170.077L214.154 37.1617L213.398 37.3122V13.0264H224V47.9647H213.903L169.826 23.8294L170.583 23.6789V47.9647H159.98V13.0264Z" fill="#63003D"/>
<path d="M289.178 47.9646L283.977 41.9569H246.819L241.618 47.9646H230.004L260.498 13.0264H270.293L300.788 47.9646H289.174H289.178ZM253.788 33.9801H277.012L265.398 20.6018L253.784 33.9801H253.788Z" fill="#63003D"/>
<path d="M205.488 61.9121H208.464V72.7485H205.174V65.6371L197.749 71.3689H196.637L189.212 65.6371V72.7485H185.922V61.9121H188.899L197.197 68.2083L205.483 61.9121H205.488Z" fill="#63003D"/>
<path d="M230.187 62.5309C231.137 62.9448 231.86 63.5551 232.357 64.362C232.855 65.1731 233.101 66.1597 233.101 67.3303V67.347C233.101 68.5176 232.855 69.5043 232.357 70.307C231.86 71.1097 231.137 71.7201 230.187 72.1298C229.238 72.5437 228.089 72.7485 226.743 72.7485H217.031C215.685 72.7485 214.535 72.5437 213.586 72.1298C212.637 71.7159 211.914 71.1097 211.416 70.307C210.919 69.5043 210.672 68.5176 210.672 67.347V67.3303C210.672 66.1597 210.919 65.1731 211.416 64.362C211.914 63.551 212.637 62.9406 213.586 62.5309C214.535 62.117 215.685 61.9121 217.031 61.9121H226.743C228.089 61.9121 229.238 62.117 230.187 62.5309ZM228.582 69.6339C229.059 69.4374 229.406 69.1448 229.631 68.7643C229.857 68.3839 229.97 67.9114 229.97 67.347V67.3303C229.97 66.7576 229.857 66.2768 229.631 65.8963C229.406 65.5159 229.059 65.2274 228.582 65.0267C228.105 64.8303 227.495 64.7299 226.743 64.7299H217.031C216.278 64.7299 215.664 64.8303 215.191 65.0267C214.715 65.2232 214.368 65.5159 214.142 65.8963C213.916 66.2768 213.803 66.7534 213.803 67.3303V67.347C213.803 67.9114 213.916 68.3839 214.142 68.7643C214.368 69.1448 214.715 69.4332 215.191 69.6339C215.668 69.8304 216.278 69.9307 217.031 69.9307H226.743C227.495 69.9307 228.11 69.8304 228.582 69.6339Z" fill="#63003D"/>
<path d="M254.18 62.5309C255.129 62.9448 255.852 63.5551 256.349 64.362C256.847 65.1731 257.094 66.1597 257.094 67.3303V67.347C257.094 68.5176 256.847 69.5043 256.349 70.307C255.852 71.1097 255.129 71.7201 254.18 72.1298C253.231 72.5437 252.081 72.7485 250.735 72.7485H241.023C239.677 72.7485 238.527 72.5437 237.578 72.1298C236.629 71.7159 235.906 71.1097 235.408 70.307C234.911 69.5043 234.664 68.5176 234.664 67.347V67.3303C234.664 66.1597 234.911 65.1731 235.408 64.362C235.906 63.551 236.629 62.9406 237.578 62.5309C238.527 62.117 239.677 61.9121 241.023 61.9121H250.735C252.081 61.9121 253.231 62.117 254.18 62.5309ZM252.574 69.6339C253.051 69.4374 253.398 69.1448 253.624 68.7643C253.849 68.3839 253.962 67.9114 253.962 67.347V67.3303C253.962 66.7576 253.849 66.2768 253.624 65.8963C253.398 65.5159 253.051 65.2274 252.574 65.0267C252.098 64.8303 251.487 64.7299 250.735 64.7299H241.023C240.27 64.7299 239.656 64.8303 239.183 65.0267C238.707 65.2232 238.36 65.5159 238.134 65.8963C237.908 66.2768 237.795 66.7534 237.795 67.3303V67.347C237.795 67.9114 237.908 68.3839 238.134 68.7643C238.36 69.1448 238.707 69.4332 239.183 69.6339C239.66 69.8304 240.27 69.9307 241.023 69.9307H250.735C251.487 69.9307 252.102 69.8304 252.574 69.6339Z" fill="#63003D"/>
<path d="M276.008 64.9978C275.74 64.8932 275.439 64.8222 275.101 64.7845C274.762 64.7469 274.327 64.7302 273.792 64.7302H265.021C264.323 64.7302 263.733 64.8222 263.261 65.0061C262.784 65.1901 262.425 65.4744 262.174 65.859C261.923 66.2436 261.798 66.7369 261.798 67.3306V67.3473C261.798 67.9326 261.923 68.4176 262.174 68.8022C262.425 69.1868 262.788 69.4711 263.261 69.6551C263.738 69.839 264.323 69.931 265.021 69.931H273.792C274.323 69.931 274.762 69.9143 275.101 69.8767C275.439 69.839 275.745 69.768 276.008 69.6634C276.275 69.5589 276.501 69.3959 276.689 69.1785L278.646 71.3692C278.27 71.7329 277.864 72.0172 277.425 72.2137C276.986 72.4143 276.485 72.5523 275.916 72.6276C275.347 72.707 274.641 72.7446 273.792 72.7446H265.021C263.675 72.7446 262.525 72.5398 261.576 72.1259C260.627 71.712 259.904 71.1058 259.406 70.3031C258.909 69.5004 258.662 68.5137 258.662 67.3431V67.3264C258.662 66.1558 258.909 65.1692 259.406 64.3581C259.904 63.547 260.627 62.9367 261.576 62.5269C262.525 62.1131 263.675 61.9082 265.021 61.9082H273.792C274.637 61.9082 275.343 61.9458 275.916 62.0253C276.485 62.1047 276.99 62.2427 277.425 62.4392C277.864 62.6356 278.27 62.9199 278.646 63.2837L276.689 65.4744C276.501 65.257 276.275 65.0939 276.008 64.9894V64.9978Z" fill="#63003D"/>
<path d="M297.188 72.7485L295.574 70.8839H284.048L282.434 72.7485H278.83L288.291 61.9121H291.33L300.791 72.7485H297.188ZM286.209 68.4089H293.412L289.809 64.2575L286.205 68.4089H286.209Z" fill="#63003D"/>
<path d="M170.581 62.3467H0.789062V72.7483H170.581V62.3467Z" fill="url(#paint0_linear_176_8)"/>
<path d="M251.123 5.20437C250.718 6.41678 250.5 7.79641 250.467 9.34328H250.463V10.1H259.296C259.296 9.69446 259.426 9.34746 259.677 9.06317C259.928 8.7747 260.375 8.63256 261.015 8.63256C261.42 8.63256 261.863 8.68272 262.353 8.78306C262.838 8.88758 263.318 9.02136 263.791 9.18859C264.798 9.46034 265.743 9.67774 266.617 9.84496C267.491 10.0122 268.553 10.0958 269.798 10.0958C271.784 10.0958 273.34 9.67356 274.468 8.83323C275.597 7.99291 276.379 6.96445 276.818 5.75204C277.253 4.53963 277.508 3.21016 277.575 1.76364V1.05709H268.741C268.741 1.49607 268.586 1.85143 268.285 2.119C267.984 2.39074 267.528 2.52453 266.922 2.52453C266.483 2.52453 266.04 2.47436 265.584 2.37402C265.133 2.2695 264.619 2.119 264.046 1.91832C263.105 1.61731 262.202 1.37901 261.345 1.21178C260.488 1.04455 259.489 0.960938 258.343 0.960938C256.257 0.960938 254.635 1.36647 253.473 2.17335C252.311 2.98441 251.529 3.99196 251.123 5.20437Z" fill="#63003D"/>
</g>
</g>
<defs>
<linearGradient id="paint0_linear_176_8" x1="0.789062" y1="67.1368" x2="170.581" y2="67.1368" gradientUnits="userSpaceOnUse">
<stop stop-color="#A77013"/>
<stop offset="1" stop-color="#E0AE32"/>
</linearGradient>
<clipPath id="clip0_176_8">
<rect width="301" height="73" fill="white"/>
</clipPath>
</defs>
</svg>
