<svg width="300" height="72" viewBox="0 0 300 72" fill="none" xmlns="http://www.w3.org/2000/svg">
<mask id="mask0_176_41" style="mask-type:luminance" maskUnits="userSpaceOnUse" x="0" y="0" width="300" height="72">
<path d="M300 0H0V71.7871H300V0Z" fill="white"/>
</mask>
<g mask="url(#mask0_176_41)">
<path d="M63.0597 12.0645H72.6544V47.0027H62.0521V24.0799L38.1217 42.5586H34.5388L10.6042 24.0799V47.0027H0.00195312V12.0645H9.59254L36.3533 32.3619L63.0597 12.0645Z" fill="white"/>
<path d="M142.681 14.0587C145.746 15.3881 148.074 17.3573 149.675 19.966C151.272 22.5748 152.075 25.7647 152.075 29.5315V29.5817C152.075 33.3527 151.277 36.5342 149.675 39.1263C148.078 41.7183 145.746 43.6791 142.681 45.0085C139.617 46.338 135.917 47.0027 131.573 47.0027H100.272C95.928 47.0027 92.228 46.338 89.1636 45.0085C86.0991 43.6791 83.7704 41.7183 82.1692 39.1263C80.568 36.5342 79.7695 33.3527 79.7695 29.5817V29.5315C79.7695 25.7605 80.568 22.5706 82.1692 19.966C83.7663 17.3573 86.0991 15.3881 89.1636 14.0587C92.228 12.7292 95.928 12.0645 100.272 12.0645H131.573C135.917 12.0645 139.617 12.7292 142.681 14.0587ZM137.505 36.9565C139.035 36.3168 140.164 35.3845 140.888 34.1554C141.611 32.9263 141.975 31.4045 141.975 29.5859V29.5357C141.975 27.6836 141.611 26.1451 140.888 24.916C140.164 23.6869 139.035 22.7546 137.505 22.1149C135.975 21.4753 133.998 21.1575 131.573 21.1575H100.272C97.8469 21.1575 95.8694 21.4794 94.3393 22.1149C92.805 22.7546 91.6804 23.6869 90.9571 24.916C90.2338 26.1451 89.8701 27.6836 89.8701 29.5357V29.5859C89.8701 31.4045 90.2296 32.9263 90.9571 34.1554C91.6804 35.3845 92.8092 36.3168 94.3393 36.9565C95.8694 37.5961 97.8469 37.9138 100.272 37.9138H131.573C133.998 37.9138 135.975 37.5961 137.505 36.9565Z" fill="white"/>
<path d="M159.191 12.0645H169.288L213.365 36.1998L212.609 36.3503V12.0645H223.211V47.0028H213.114L169.037 22.8675L169.794 22.717V47.0028H159.191V12.0645Z" fill="white"/>
<path d="M288.389 47.0027L283.188 40.995H246.03L240.829 47.0027H229.215L259.709 12.0645H269.504L299.999 47.0027H288.385H288.389ZM252.999 33.0182H276.223L264.609 19.6399L252.995 33.0182H252.999Z" fill="white"/>
<path d="M204.699 60.9502H207.675V71.7866H204.385V64.6752L196.96 70.407H195.848L188.423 64.6752V71.7866H185.133V60.9502H188.11L196.408 67.2464L204.694 60.9502H204.699Z" fill="white"/>
<path d="M229.398 61.569C230.348 61.9829 231.071 62.5932 231.568 63.4001C232.066 64.2112 232.312 65.1978 232.312 66.3684V66.3851C232.312 67.5557 232.066 68.5424 231.568 69.3451C231.071 70.1478 230.348 70.7582 229.398 71.1679C228.449 71.5818 227.3 71.7866 225.954 71.7866H216.242C214.896 71.7866 213.746 71.5818 212.797 71.1679C211.848 70.754 211.125 70.1478 210.627 69.3451C210.13 68.5424 209.883 67.5557 209.883 66.3851V66.3684C209.883 65.1978 210.13 64.2112 210.627 63.4001C211.125 62.5891 211.848 61.9787 212.797 61.569C213.746 61.1551 214.896 60.9502 216.242 60.9502H225.954C227.3 60.9502 228.449 61.1551 229.398 61.569ZM227.793 68.672C228.27 68.4755 228.617 68.1829 228.842 67.8024C229.068 67.422 229.181 66.9495 229.181 66.3851V66.3684C229.181 65.7957 229.068 65.3149 228.842 64.9344C228.617 64.554 228.27 64.2655 227.793 64.0648C227.316 63.8684 226.706 63.768 225.954 63.768H216.242C215.489 63.768 214.875 63.8684 214.402 64.0648C213.926 64.2613 213.579 64.554 213.353 64.9344C213.127 65.3149 213.014 65.7915 213.014 66.3684V66.3851C213.014 66.9495 213.127 67.422 213.353 67.8024C213.579 68.1829 213.926 68.4713 214.402 68.672C214.879 68.8685 215.489 68.9688 216.242 68.9688H225.954C226.706 68.9688 227.321 68.8685 227.793 68.672Z" fill="white"/>
<path d="M253.391 61.569C254.34 61.9829 255.063 62.5932 255.56 63.4001C256.058 64.2112 256.305 65.1978 256.305 66.3684V66.3851C256.305 67.5557 256.058 68.5424 255.56 69.3451C255.063 70.1478 254.34 70.7582 253.391 71.1679C252.442 71.5818 251.292 71.7866 249.946 71.7866H240.234C238.888 71.7866 237.738 71.5818 236.789 71.1679C235.84 70.754 235.117 70.1478 234.619 69.3451C234.122 68.5424 233.875 67.5557 233.875 66.3851V66.3684C233.875 65.1978 234.122 64.2112 234.619 63.4001C235.117 62.5891 235.84 61.9787 236.789 61.569C237.738 61.1551 238.888 60.9502 240.234 60.9502H249.946C251.292 60.9502 252.442 61.1551 253.391 61.569ZM251.785 68.672C252.262 68.4755 252.609 68.1829 252.835 67.8024C253.06 67.422 253.173 66.9495 253.173 66.3851V66.3684C253.173 65.7957 253.06 65.3149 252.835 64.9344C252.609 64.554 252.262 64.2655 251.785 64.0648C251.309 63.8684 250.698 63.768 249.946 63.768H240.234C239.481 63.768 238.867 63.8684 238.394 64.0648C237.918 64.2613 237.571 64.554 237.345 64.9344C237.119 65.3149 237.006 65.7915 237.006 66.3684V66.3851C237.006 66.9495 237.119 67.422 237.345 67.8024C237.571 68.1829 237.918 68.4713 238.394 68.672C238.871 68.8685 239.481 68.9688 240.234 68.9688H249.946C250.698 68.9688 251.313 68.8685 251.785 68.672Z" fill="white"/>
<path d="M275.219 64.0359C274.951 63.9313 274.65 63.8603 274.312 63.8226C273.973 63.785 273.538 63.7683 273.003 63.7683H264.232C263.534 63.7683 262.944 63.8603 262.472 64.0442C261.995 64.2282 261.636 64.5125 261.385 64.8971C261.134 65.2817 261.009 65.775 261.009 66.3687V66.3854C261.009 66.9707 261.134 67.4557 261.385 67.8403C261.636 68.2249 261.999 68.5092 262.472 68.6932C262.949 68.8771 263.534 68.9691 264.232 68.9691H273.003C273.534 68.9691 273.973 68.9524 274.312 68.9148C274.65 68.8771 274.956 68.8061 275.219 68.7015C275.486 68.597 275.712 68.434 275.9 68.2166L277.857 70.4073C277.481 70.771 277.075 71.0553 276.636 71.2518C276.197 71.4524 275.696 71.5904 275.127 71.6657C274.558 71.7451 273.852 71.7827 273.003 71.7827H264.232C262.886 71.7827 261.736 71.5779 260.787 71.164C259.838 70.7501 259.115 70.1439 258.617 69.3412C258.12 68.5385 257.873 67.5518 257.873 66.3812V66.3645C257.873 65.1939 258.12 64.2073 258.617 63.3962C259.115 62.5851 259.838 61.9748 260.787 61.565C261.736 61.1512 262.886 60.9463 264.232 60.9463H273.003C273.848 60.9463 274.554 60.9839 275.127 61.0634C275.696 61.1428 276.201 61.2808 276.636 61.4773C277.075 61.6737 277.481 61.958 277.857 62.3218L275.9 64.5125C275.712 64.2951 275.486 64.132 275.219 64.0275V64.0359Z" fill="white"/>
<path d="M296.399 71.7866L294.785 69.922H283.259L281.645 71.7866H278.041L287.502 60.9502H290.541L300.002 71.7866H296.399ZM285.42 67.447H292.623L289.02 63.2956L285.416 67.447H285.42Z" fill="white"/>
<path d="M169.792 61.3848H0V71.7864H169.792V61.3848Z" fill="white"/>
<path d="M250.334 4.24246C249.929 5.45487 249.711 6.83449 249.678 8.38136H249.674V9.13809H258.507C258.507 8.73255 258.637 8.38555 258.888 8.10126C259.139 7.81279 259.586 7.67065 260.226 7.67065C260.631 7.67065 261.074 7.72081 261.564 7.82115C262.049 7.92567 262.529 8.05945 263.002 8.22668C264.009 8.49843 264.954 8.71583 265.828 8.88305C266.702 9.05029 267.764 9.13389 269.009 9.13389C270.995 9.13389 272.551 8.71165 273.679 7.87132C274.808 7.031 275.59 6.00254 276.029 4.79013C276.464 3.57772 276.719 2.24825 276.786 0.801726V0.0951755H267.952C267.952 0.534155 267.797 0.889515 267.496 1.15709C267.195 1.42883 266.739 1.56262 266.133 1.56262C265.694 1.56262 265.251 1.51245 264.795 1.41211C264.344 1.30759 263.83 1.15709 263.257 0.956405C262.316 0.655395 261.413 0.417095 260.556 0.249865C259.699 0.0826354 258.7 -0.000976562 257.554 -0.000976562C255.468 -0.000976562 253.846 0.404556 252.684 1.21144C251.522 2.0225 250.74 3.03005 250.334 4.24246Z" fill="white"/>
</g>
</svg>
