<svg width="301" height="73" viewBox="0 0 301 73" fill="none" xmlns="http://www.w3.org/2000/svg">
<path d="M63.8468 12.6709H73.4416V47.6091H62.8393V24.6863L38.9088 43.165H35.326L11.3914 24.6863V47.6091H0.789062V12.6709H10.3796L37.1404 32.9683L63.8468 12.6709Z" fill="white"/>
<path d="M143.468 14.6651C146.533 15.9946 148.861 17.9637 150.462 20.5725C152.059 23.1812 152.862 26.3711 152.862 30.1379V30.1881C152.862 33.9591 152.064 37.1406 150.462 39.7327C148.865 42.3247 146.533 44.2855 143.468 45.6149C140.404 46.9444 136.704 47.6091 132.36 47.6091H101.059C96.7151 47.6091 93.0152 46.9444 89.9507 45.6149C86.8862 44.2855 84.5576 42.3247 82.9564 39.7327C81.3552 37.1406 80.5566 33.9591 80.5566 30.1881V30.1379C80.5566 26.3669 81.3552 23.177 82.9564 20.5725C84.5534 17.9637 86.8862 15.9946 89.9507 14.6651C93.0152 13.3356 96.7151 12.6709 101.059 12.6709H132.36C136.704 12.6709 140.404 13.3356 143.468 14.6651ZM138.292 37.5629C139.822 36.9232 140.951 35.9909 141.675 34.7618C142.398 33.5327 142.762 32.0109 142.762 30.1923V30.1421C142.762 28.2901 142.398 26.7516 141.675 25.5224C140.951 24.2933 139.822 23.361 138.292 22.7213C136.762 22.0817 134.785 21.764 132.36 21.764H101.059C98.6341 21.764 96.6566 22.0859 95.1264 22.7213C93.5921 23.361 92.4675 24.2933 91.7442 25.5224C91.021 26.7516 90.6573 28.2901 90.6573 30.1421V30.1923C90.6573 32.0109 91.0168 33.5327 91.7442 34.7618C92.4675 35.9909 93.5963 36.9232 95.1264 37.5629C96.6566 38.2025 98.6341 38.5203 101.059 38.5203H132.36C134.785 38.5203 136.762 38.2025 138.292 37.5629Z" fill="white"/>
<path d="M159.979 12.671H170.075L214.152 36.8063L213.396 36.9568V12.671H223.998V47.6093H213.901L169.824 23.474L170.581 23.3235V47.6093H159.979V12.671ZM179.465 8.98781C179.498 7.44094 179.716 6.0613 180.121 4.8489C180.527 3.63649 181.309 2.62894 182.471 1.81788C183.633 1.011 185.255 0.605469 187.341 0.605469C188.487 0.605469 189.486 0.689083 190.343 0.856312C191.2 1.02354 192.103 1.26184 193.044 1.56285C193.617 1.76353 194.131 1.91403 194.582 2.01855C195.038 2.11889 195.481 2.16906 195.92 2.16906C196.526 2.16906 196.982 2.03527 197.283 1.76353C197.584 1.49596 197.739 1.1406 197.739 0.701625H206.573V1.40817C206.506 2.85469 206.251 4.18416 205.816 5.39657C205.377 6.60898 204.595 7.63743 203.466 8.47776C202.338 9.31808 200.782 9.74033 198.796 9.74033C197.551 9.74033 196.489 9.65672 195.615 9.48949C194.741 9.32226 193.796 9.10487 192.789 8.83312C192.316 8.66589 191.836 8.53211 191.351 8.42759C190.861 8.32725 190.418 8.27708 190.013 8.27708C189.373 8.27708 188.926 8.41923 188.675 8.7077C188.424 8.99199 188.295 9.33899 188.295 9.74452H179.461V8.98781H179.465Z" fill="white"/>
<path d="M289.174 47.6091L283.973 41.6015H246.815L241.614 47.6091H230L260.494 12.6709H270.29L300.784 47.6091H289.17H289.174ZM253.784 33.6247H277.008L265.394 20.2464L253.78 33.6247H253.784Z" fill="white"/>
<path d="M205.488 61.5566H208.464V72.3931H205.174V65.2817L197.749 71.0134H196.637L189.212 65.2817V72.3931H185.922V61.5566H188.899L197.197 67.8528L205.483 61.5566H205.488Z" fill="white"/>
<path d="M230.187 62.1754C231.136 62.5893 231.86 63.1997 232.357 64.0065C232.855 64.8176 233.101 65.8043 233.101 66.9749V66.9916C233.101 68.1622 232.855 69.1488 232.357 69.9515C231.86 70.7542 231.136 71.3646 230.187 71.7743C229.238 72.1882 228.089 72.3931 226.743 72.3931H217.031C215.685 72.3931 214.535 72.1882 213.586 71.7743C212.637 71.3604 211.914 70.7542 211.416 69.9515C210.919 69.1488 210.672 68.1622 210.672 66.9916V66.9749C210.672 65.8043 210.919 64.8176 211.416 64.0065C211.914 63.1955 212.637 62.5851 213.586 62.1754C214.535 61.7615 215.685 61.5566 217.031 61.5566H226.743C228.089 61.5566 229.238 61.7615 230.187 62.1754ZM228.582 69.2784C229.059 69.0819 229.406 68.7893 229.631 68.4088C229.857 68.0284 229.97 67.556 229.97 66.9916V66.9749C229.97 66.4021 229.857 65.9213 229.631 65.5409C229.406 65.1604 229.059 64.872 228.582 64.6713C228.105 64.4748 227.495 64.3744 226.743 64.3744H217.031C216.278 64.3744 215.664 64.4748 215.191 64.6713C214.715 64.8678 214.368 65.1604 214.142 65.5409C213.916 65.9213 213.803 66.3979 213.803 66.9749V66.9916C213.803 67.556 213.916 68.0284 214.142 68.4088C214.368 68.7893 214.715 69.0778 215.191 69.2784C215.668 69.4749 216.278 69.5753 217.031 69.5753H226.743C227.495 69.5753 228.11 69.4749 228.582 69.2784Z" fill="white"/>
<path d="M254.18 62.1754C255.129 62.5893 255.852 63.1997 256.349 64.0065C256.847 64.8176 257.094 65.8043 257.094 66.9749V66.9916C257.094 68.1622 256.847 69.1488 256.349 69.9515C255.852 70.7542 255.129 71.3646 254.18 71.7743C253.231 72.1882 252.081 72.3931 250.735 72.3931H241.023C239.677 72.3931 238.527 72.1882 237.578 71.7743C236.629 71.3604 235.906 70.7542 235.408 69.9515C234.911 69.1488 234.664 68.1622 234.664 66.9916V66.9749C234.664 65.8043 234.911 64.8176 235.408 64.0065C235.906 63.1955 236.629 62.5851 237.578 62.1754C238.527 61.7615 239.677 61.5566 241.023 61.5566H250.735C252.081 61.5566 253.231 61.7615 254.18 62.1754ZM252.574 69.2784C253.051 69.0819 253.398 68.7893 253.624 68.4088C253.849 68.0284 253.962 67.556 253.962 66.9916V66.9749C253.962 66.4021 253.849 65.9213 253.624 65.5409C253.398 65.1604 253.051 64.872 252.574 64.6713C252.098 64.4748 251.487 64.3744 250.735 64.3744H241.023C240.27 64.3744 239.656 64.4748 239.183 64.6713C238.707 64.8678 238.36 65.1604 238.134 65.5409C237.908 65.9213 237.795 66.3979 237.795 66.9749V66.9916C237.795 67.556 237.908 68.0284 238.134 68.4088C238.36 68.7893 238.707 69.0778 239.183 69.2784C239.66 69.4749 240.27 69.5753 241.023 69.5753H250.735C251.487 69.5753 252.102 69.4749 252.574 69.2784Z" fill="white"/>
<path d="M276.008 64.6423C275.74 64.5378 275.439 64.4667 275.101 64.4291C274.762 64.3914 274.327 64.3747 273.792 64.3747H265.021C264.323 64.3747 263.733 64.4667 263.261 64.6506C262.784 64.8346 262.425 65.1189 262.174 65.5035C261.923 65.8881 261.798 66.3815 261.798 66.9751V66.9918C261.798 67.5771 261.923 68.0621 262.174 68.4467C262.425 68.8314 262.788 69.1157 263.261 69.2996C263.737 69.4836 264.323 69.5755 265.021 69.5755H273.792C274.323 69.5755 274.762 69.5588 275.101 69.5212C275.439 69.4836 275.745 69.4125 276.008 69.308C276.275 69.2034 276.501 69.0404 276.689 68.823L278.646 71.0137C278.27 71.3774 277.864 71.6617 277.425 71.8582C276.986 72.0589 276.485 72.1968 275.916 72.2721C275.347 72.3515 274.641 72.3892 273.792 72.3892H265.021C263.675 72.3892 262.525 72.1843 261.576 71.7704C260.627 71.3565 259.904 70.7503 259.406 69.9476C258.909 69.1449 258.662 68.1583 258.662 66.9877V66.9709C258.662 65.8003 258.909 64.8137 259.406 64.0026C259.904 63.1916 260.627 62.5812 261.576 62.1715C262.525 61.7576 263.675 61.5527 265.021 61.5527H273.792C274.637 61.5527 275.343 61.5904 275.916 61.6698C276.485 61.7492 276.99 61.8872 277.425 62.0837C277.864 62.2802 278.27 62.5645 278.646 62.9282L276.689 65.1189C276.501 64.9015 276.275 64.7384 276.008 64.6339V64.6423Z" fill="white"/>
<path d="M297.188 72.3931L295.574 70.5285H284.048L282.434 72.3931H278.83L288.291 61.5566H291.33L300.791 72.3931H297.188ZM286.209 68.0535H293.412L289.809 63.902L286.205 68.0535H286.209Z" fill="white"/>
<path d="M170.581 61.9912H0.789062V72.3928H170.581V61.9912Z" fill="white"/>
</svg>
