<svg width="351" height="85" viewBox="0 0 351 85" fill="none" xmlns="http://www.w3.org/2000/svg">
<path d="M73.9294 14.9121H85.1347V55.7149H72.7528V28.9443L44.8055 50.5249H40.6212L12.6691 28.9443V55.7149H0.287109V14.9121H11.4875L42.7402 38.6165L73.9294 14.9121Z" fill="#221C13"/>
<path d="M166.917 17.241C170.496 18.7937 173.215 21.0933 175.085 24.14C176.95 27.1866 177.888 30.912 177.888 35.3111V35.3697C177.888 39.7737 176.955 43.4892 175.085 46.5163C173.22 49.5435 170.496 51.8334 166.917 53.386C163.338 54.9386 159.017 55.7149 153.944 55.7149H117.389C112.316 55.7149 107.995 54.9386 104.416 53.386C100.837 51.8334 98.1178 49.5435 96.2478 46.5163C94.3779 43.4892 93.4453 39.7737 93.4453 35.3697V35.3111C93.4453 30.9071 94.3779 27.1818 96.2478 24.14C98.113 21.0933 100.837 18.7937 104.416 17.241C107.995 15.6884 112.316 14.9121 117.389 14.9121H153.944C159.017 14.9121 163.338 15.6884 166.917 17.241ZM160.872 43.9823C162.659 43.2353 163.977 42.1465 164.822 40.7111C165.667 39.2756 166.092 37.4984 166.092 35.3745V35.316C166.092 33.153 165.667 31.3563 164.822 29.9208C163.977 28.4854 162.659 27.3966 160.872 26.6496C159.085 25.9026 156.776 25.5315 153.944 25.5315H117.389C114.557 25.5315 112.248 25.9074 110.461 26.6496C108.669 27.3966 107.355 28.4854 106.511 29.9208C105.666 31.3563 105.241 33.153 105.241 35.316V35.3745C105.241 37.4984 105.661 39.2756 106.511 40.7111C107.355 42.1465 108.674 43.2353 110.461 43.9823C112.248 44.7294 114.557 45.1004 117.389 45.1004H153.944C156.776 45.1004 159.085 44.7294 160.872 43.9823Z" fill="#221C13"/>
<path d="M186.197 14.9121H197.988L249.464 43.0986L248.581 43.2744V14.9121H260.963V55.7149H249.171L197.695 27.5284L198.579 27.3526V55.7149H186.197V14.9121ZM208.954 10.6106C208.994 8.80413 209.247 7.19291 209.721 5.777C210.195 4.36108 211.108 3.18441 212.465 2.23721C213.822 1.29489 215.717 0.821289 218.153 0.821289C219.491 0.821289 220.658 0.918939 221.659 1.11424C222.66 1.30954 223.714 1.58784 224.813 1.93938C225.482 2.17373 226.082 2.3495 226.609 2.47156C227.142 2.58874 227.659 2.64733 228.172 2.64733C228.88 2.64733 229.412 2.49109 229.764 2.17373C230.115 1.86126 230.296 1.44625 230.296 0.933586H240.612V1.75872C240.534 3.44806 240.236 5.00068 239.729 6.4166C239.216 7.83252 238.303 9.03361 236.985 10.015C235.666 10.9964 233.85 11.4895 231.531 11.4895C230.076 11.4895 228.836 11.3918 227.815 11.1965C226.795 11.0012 225.692 10.7474 224.515 10.43C223.963 10.2347 223.402 10.0785 222.835 9.95639C222.264 9.83921 221.747 9.78063 221.273 9.78063C220.526 9.78063 220.004 9.94663 219.711 10.2835C219.418 10.6155 219.266 11.0208 219.266 11.4944H208.95V10.6106H208.954Z" fill="#221C13"/>
<path d="M337.079 55.7149L331.005 48.6988H287.61L281.536 55.7149H267.973L303.585 14.9121H315.025L350.638 55.7149H337.074H337.079ZM295.749 39.3831H322.871L309.308 23.7591L295.744 39.3831H295.749Z" fill="#221C13"/>
<path d="M239.344 72.0029H242.82V84.6583H238.978V76.3532L230.307 83.0471H229.008L220.337 76.3532V84.6583H216.494V72.0029H219.97L229.662 79.3559L239.339 72.0029H239.344Z" fill="#221C13"/>
<path d="M268.19 72.7255C269.298 73.2089 270.143 73.9217 270.724 74.8641C271.305 75.8113 271.593 76.9635 271.593 78.3306V78.3501C271.593 79.7172 271.305 80.8695 270.724 81.8069C270.143 82.7444 269.298 83.4572 268.19 83.9357C267.082 84.4191 265.739 84.6583 264.167 84.6583H252.825C251.253 84.6583 249.91 84.4191 248.802 83.9357C247.693 83.4523 246.849 82.7444 246.268 81.8069C245.687 80.8695 245.398 79.7172 245.398 78.3501V78.3306C245.398 76.9635 245.687 75.8113 246.268 74.8641C246.849 73.9169 247.693 73.204 248.802 72.7255C249.91 72.2422 251.253 72.0029 252.825 72.0029H264.167C265.739 72.0029 267.082 72.2422 268.19 72.7255ZM266.315 81.0209C266.872 80.7914 267.277 80.4496 267.54 80.0053C267.804 79.561 267.936 79.0093 267.936 78.3501V78.3306C267.936 77.6617 267.804 77.1002 267.54 76.6559C267.277 76.2116 266.872 75.8747 266.315 75.6404C265.758 75.4109 265.046 75.2937 264.167 75.2937H252.825C251.946 75.2937 251.228 75.4109 250.676 75.6404C250.12 75.8699 249.715 76.2116 249.451 76.6559C249.187 77.1002 249.055 77.6568 249.055 78.3306V78.3501C249.055 79.0093 249.187 79.561 249.451 80.0053C249.715 80.4496 250.12 80.7865 250.676 81.0209C251.233 81.2503 251.946 81.3675 252.825 81.3675H264.167C265.046 81.3675 265.763 81.2503 266.315 81.0209Z" fill="#221C13"/>
<path d="M296.211 72.7255C297.32 73.2089 298.164 73.9217 298.745 74.8641C299.326 75.8113 299.614 76.9635 299.614 78.3306V78.3501C299.614 79.7172 299.326 80.8695 298.745 81.8069C298.164 82.7444 297.32 83.4572 296.211 83.9357C295.103 84.4191 293.76 84.6583 292.188 84.6583H280.846C279.274 84.6583 277.931 84.4191 276.823 83.9357C275.715 83.4523 274.87 82.7444 274.289 81.8069C273.708 80.8695 273.42 79.7172 273.42 78.3501V78.3306C273.42 76.9635 273.708 75.8113 274.289 74.8641C274.87 73.9169 275.715 73.204 276.823 72.7255C277.931 72.2422 279.274 72.0029 280.846 72.0029H292.188C293.76 72.0029 295.103 72.2422 296.211 72.7255ZM294.336 81.0209C294.893 80.7914 295.298 80.4496 295.562 80.0053C295.826 79.561 295.957 79.0093 295.957 78.3501V78.3306C295.957 77.6617 295.826 77.1002 295.562 76.6559C295.298 76.2116 294.893 75.8747 294.336 75.6404C293.78 75.4109 293.067 75.2937 292.188 75.2937H280.846C279.967 75.2937 279.25 75.4109 278.698 75.6404C278.141 75.8699 277.736 76.2116 277.472 76.6559C277.209 77.1002 277.077 77.6568 277.077 78.3306V78.3501C277.077 79.0093 277.209 79.561 277.472 80.0053C277.736 80.4496 278.141 80.7865 278.698 81.0209C279.254 81.2503 279.967 81.3675 280.846 81.3675H292.188C293.067 81.3675 293.785 81.2503 294.336 81.0209Z" fill="#221C13"/>
<path d="M321.703 75.6062C321.39 75.4841 321.039 75.4011 320.643 75.3572C320.248 75.3132 319.74 75.2937 319.115 75.2937H308.872C308.056 75.2937 307.368 75.4011 306.816 75.616C306.259 75.8308 305.84 76.1628 305.547 76.612C305.254 77.0612 305.107 77.6373 305.107 78.3306V78.3501C305.107 79.0337 305.254 79.6001 305.547 80.0492C305.84 80.4984 306.264 80.8304 306.816 81.0453C307.373 81.2601 308.056 81.3675 308.872 81.3675H319.115C319.735 81.3675 320.248 81.348 320.643 81.304C321.039 81.2601 321.395 81.1771 321.703 81.055C322.015 80.933 322.279 80.7426 322.499 80.4887L324.784 83.0471C324.344 83.4719 323.871 83.8039 323.358 84.0333C322.845 84.2677 322.259 84.4288 321.595 84.5167C320.931 84.6095 320.106 84.6534 319.115 84.6534H308.872C307.299 84.6534 305.957 84.4142 304.848 83.9308C303.74 83.4474 302.895 82.7395 302.314 81.8021C301.733 80.8646 301.445 79.7124 301.445 78.3453V78.3257C301.445 76.9586 301.733 75.8064 302.314 74.8592C302.895 73.912 303.74 73.1991 304.848 72.7207C305.957 72.2373 307.299 71.998 308.872 71.998H319.115C320.101 71.998 320.926 72.042 321.595 72.1348C322.259 72.2275 322.85 72.3886 323.358 72.6181C323.871 72.8476 324.344 73.1796 324.784 73.6044L322.499 76.1628C322.279 75.9089 322.015 75.7185 321.703 75.5964V75.6062Z" fill="#221C13"/>
<path d="M346.437 84.6583L344.552 82.4807H331.091L329.207 84.6583H324.998L336.047 72.0029H339.597L350.646 84.6583H346.437ZM333.616 79.5903H342.028L337.819 74.742L333.611 79.5903H333.616Z" fill="#221C13"/>
<path d="M198.579 72.5117H0.287109V84.6593H198.579V72.5117Z" fill="#221C13"/>
</svg>
